<?xml version="1.0" encoding="utf-8"?>
<!-- Generator: Adobe Illustrator 25.0.0, SVG Export Plug-In . SVG Version: 6.00 Build 0)  -->
<svg version="1.1" id="Capa_1" xmlns="http://www.w3.org/2000/svg" xmlns:xlink="http://www.w3.org/1999/xlink" x="0px" y="0px"
	 viewBox="0 0 450 455.4" style="enable-background:new 0 0 450 455.4;" xml:space="preserve">
<style type="text/css">
	.st0{fill:#5CA4DA;}
	.st1{fill:#6DAFE0;}
	.st2{fill:#FAFAFA;}
</style>
<path class="st0" d="M400.9,412.8c-68.9,56.9-284,56.9-351.5,0c-68.9-56.9-61.9-300.1,0-364.1s289.7-64,351.5,0
	S469.8,355.9,400.9,412.8z"/>
<path class="st1" d="M229.1,313.2C166.6,363,96.9,388.6,31.4,390C-16.9,307.5-7,107,49.9,48.7c51.2-52.6,211.9-62.6,304.4-29.9
	C377,112.7,330.1,232.1,229.1,313.2z"/>
<path class="st2" d="M287.5,213.9l-16.8,19.2V109.3c0-29.5-20.9-53.3-46.6-53.3s-46.2,23.9-46.2,53.3v123.6l-16.8-19.2
	c-16.7-18.3-43.1-18.3-59.8,0c-16.5,18.9-16.5,49.5,0,68.4l103.3,118.3c10.9,12.5,28.6,12.5,39.5,0l103.3-118.3
	c16.5-18.9,16.5-49.5,0-68.4c-16.7-18.2-43-18.1-59.6,0.2H287.5z"/>
</svg>
